<svg width="100%" height="100%" xmlns="http://www.w3.org/2000/svg" xmlns:xlink="http://www.w3.org/1999/xlink" version="1.1" baseProfile="full" viewBox="0 0 648 508">
<rect x="0" y="0" width="100%" height="100%" fill="#f0f2f5" />

<rect width="648" height="508" x="0" y="0" fill="none"></rect>
<path d="M330.48 79.1422A15 15 0 0 1 346.7621 64.1971A190.5 190.5 0 0 1 399.2284 431.6624A15 15 0 0 1 379.4145 421.871L330.48 254Z" fill="#5470c6" stroke="#fff" stroke-width="2" stroke-linejoin="round" class="zr2-cls-0"></path>
<path d="M379.4145 421.871A15 15 0 0 1 367.9654 440.7755A190.5 190.5 0 0 1 232.5748 417.4161A15 15 0 0 1 228.1225 395.7681L330.48 254Z" fill="#88a7e4" stroke="#fff" stroke-width="2" stroke-linejoin="round" class="zr2-cls-1"></path>
<path d="M228.1225 395.7681A15 15 0 0 1 206.1731 398.3539A190.5 190.5 0 0 1 146.7567 304.3588A15 15 0 0 1 158.5088 285.6412L330.48 254Z" fill="#91cc75" stroke="#fff" stroke-width="2" stroke-linejoin="round" class="zr2-cls-2"></path>
<path d="M158.5088 285.6412A15 15 0 0 1 140.8641 272.3323A190.5 190.5 0 0 1 150.9032 190.42A15 15 0 0 1 171.2396 181.766L330.48 254Z" fill="#bde6ad" stroke="#fff" stroke-width="2" stroke-linejoin="round" class="zr2-cls-3"></path>
<path d="M171.2396 181.766A15 15 0 0 1 164.3555 160.7643A190.5 190.5 0 0 1 314.1979 64.1971A15 15 0 0 1 330.48 79.1422L330.48 254Z" fill="#00695c" stroke="#fff" stroke-width="2" stroke-linejoin="round" class="zr2-cls-4"></path>
<path d="M-50.4004 -5l100.8008 0l0 10l-100.8008 0Z" transform="translate(427.7436 240.1128)" fill="none" class="zr2-cls-5"></path>
<text dominant-baseline="central" text-anchor="middle" style="font-size:10px;font-family:Microsoft YaHei;" xml:space="preserve" transform="translate(427.7436 240.1128)" fill="#333">FOI: 12642.8(45.49%)</text>
<path d="M-51.1353 -5l102.2705 0l0 10l-102.2705 0Z" transform="translate(313.7754 350.8195)" fill="none" class="zr2-cls-5"></path>
<text dominant-baseline="central" text-anchor="middle" style="font-size:10px;font-family:Microsoft YaHei;" xml:space="preserve" transform="translate(313.7754 350.8195)" fill="#333">MGR: 4021.1(14.47%)</text>
<path d="M-49.1797 -5l98.3594 0l0 10l-98.3594 0Z" transform="translate(247.4311 306.4971)" fill="none" class="zr2-cls-5"></path>
<text dominant-baseline="central" text-anchor="middle" style="font-size:10px;font-family:Microsoft YaHei;" xml:space="preserve" transform="translate(247.4311 306.4971)" fill="#333">SOY: 3377.5(12.15%)</text>
<path d="M-47.395 -5l94.79 0l0 10l-94.79 0Z" transform="translate(232.9597 242.0481)" fill="none" class="zr2-cls-5"></path>
<text dominant-baseline="central" text-anchor="middle" style="font-size:10px;font-family:Microsoft YaHei;" xml:space="preserve" transform="translate(232.9597 242.0481)" fill="#333">MAF: 2688.8(9.67%)</text>
<path d="M-89.1504 -5l178.3008 0l0 10l-178.3008 0Z" transform="translate(277.257 171.4144)" fill="none" class="zr2-cls-5"></path>
<text dominant-baseline="central" text-anchor="middle" style="font-size:10px;font-family:Microsoft YaHei;" xml:space="preserve" transform="translate(277.257 171.4144)" fill="#333">autres: 5064.9000000000015(18.22%)</text>
<path d="M-5 -5l533.9746 0l0 52l-533.9746 0Z" transform="translate(17.96 462.2)" fill="rgb(0,0,0)" fill-opacity="0" stroke="#b7b9be" stroke-width="0" class="zr2-cls-6"></path>
<path d="M3.5 0L10.5 0A3.5 3.5 0 0 1 14 3.5L14 10.5A3.5 3.5 0 0 1 10.5 14L3.5 14A3.5 3.5 0 0 1 0 10.5L0 3.5A3.5 3.5 0 0 1 3.5 0" transform="translate(18.96 463.2)" fill="#5470c6" stroke="#fff" stroke-width="2" stroke-linecap="butt" stroke-miterlimit="10" stroke-linejoin="round" class="zr2-cls-6"></path>
<text dominant-baseline="central" text-anchor="start" style="font-size:10px;font-family:Microsoft YaHei;" xml:space="preserve" x="19" y="7" transform="translate(18.96 463.2)" fill="#333">FOI: 12 642,8 (45.49%)</text>
<path d="M-1 -1l125.2393 0l0 16l-125.2393 0Z" transform="translate(18.96 463.2)" fill="none" class="zr2-cls-6"></path>
<path d="M3.5 0L10.5 0A3.5 3.5 0 0 1 14 3.5L14 10.5A3.5 3.5 0 0 1 10.5 14L3.5 14A3.5 3.5 0 0 1 0 10.5L0 3.5A3.5 3.5 0 0 1 3.5 0" transform="translate(154.1993 463.2)" fill="#88a7e4" stroke="#fff" stroke-width="2" stroke-linecap="butt" stroke-miterlimit="10" stroke-linejoin="round" class="zr2-cls-6"></path>
<text dominant-baseline="central" text-anchor="start" style="font-size:10px;font-family:Microsoft YaHei;" xml:space="preserve" x="19" y="7" transform="translate(154.1993 463.2)" fill="#333">MGR: 4 021,1 (14.47%)</text>
<path d="M-1 -1l126.709 0l0 16l-126.709 0Z" transform="translate(154.1993 463.2)" fill="none" class="zr2-cls-6"></path>
<path d="M3.5 0L10.5 0A3.5 3.5 0 0 1 14 3.5L14 10.5A3.5 3.5 0 0 1 10.5 14L3.5 14A3.5 3.5 0 0 1 0 10.5L0 3.5A3.5 3.5 0 0 1 3.5 0" transform="translate(290.9082 463.2)" fill="#91cc75" stroke="#fff" stroke-width="2" stroke-linecap="butt" stroke-miterlimit="10" stroke-linejoin="round" class="zr2-cls-6"></path>
<text dominant-baseline="central" text-anchor="start" style="font-size:10px;font-family:Microsoft YaHei;" xml:space="preserve" x="19" y="7" transform="translate(290.9082 463.2)" fill="#333">SOY: 3 377,5 (12.15%)</text>
<path d="M-1 -1l122.7979 0l0 16l-122.7979 0Z" transform="translate(290.9082 463.2)" fill="none" class="zr2-cls-6"></path>
<path d="M3.5 0L10.5 0A3.5 3.5 0 0 1 14 3.5L14 10.5A3.5 3.5 0 0 1 10.5 14L3.5 14A3.5 3.5 0 0 1 0 10.5L0 3.5A3.5 3.5 0 0 1 3.5 0" transform="translate(423.7061 463.2)" fill="#bde6ad" stroke="#fff" stroke-width="2" stroke-linecap="butt" stroke-miterlimit="10" stroke-linejoin="round" class="zr2-cls-6"></path>
<text dominant-baseline="central" text-anchor="start" style="font-size:10px;font-family:Microsoft YaHei;" xml:space="preserve" x="19" y="7" transform="translate(423.7061 463.2)" fill="#333">MAF: 2 688,8 (9.67%)</text>
<path d="M-1 -1l119.2285 0l0 16l-119.2285 0Z" transform="translate(423.7061 463.2)" fill="none" class="zr2-cls-6"></path>
<path d="M3.5 0L10.5 0A3.5 3.5 0 0 1 14 3.5L14 10.5A3.5 3.5 0 0 1 10.5 14L3.5 14A3.5 3.5 0 0 1 0 10.5L0 3.5A3.5 3.5 0 0 1 3.5 0" transform="translate(18.96 489.2)" fill="#00695c" stroke="#fff" stroke-width="2" stroke-linecap="butt" stroke-miterlimit="10" stroke-linejoin="round" class="zr2-cls-6"></path>
<text dominant-baseline="central" text-anchor="start" style="font-size:10px;font-family:Microsoft YaHei;" xml:space="preserve" x="19" y="7" transform="translate(18.96 489.2)" fill="#333">autres: 5 064,9 (18.22%)</text>
<path d="M-1 -1l132.3682 0l0 16l-132.3682 0Z" transform="translate(18.96 489.2)" fill="none" class="zr2-cls-6"></path>
<path d="M-104.5933 0L104.5933 0A7 7 0 0 1 111.5933 7L111.5933 7A7 7 0 0 1 104.5933 14L-104.5933 14A7 7 0 0 1 -111.5933 7L-111.5933 7A7 7 0 0 1 -104.5933 0" transform="translate(336.96 10.16)" fill="none" stroke="#000" stroke-width="0" class="zr2-cls-6"></path>
<text dominant-baseline="central" text-anchor="middle" style="font-size:14px;font-family:Microsoft YaHei;font-weight:bold;" xml:space="preserve" y="7" transform="translate(336.96 10.16)" fill="#333">Production Agricole sfdbdfjhbg</text>
<style ><![CDATA[
.zr2-cls-0:hover {
cursor:pointer;
fill:rgba(92,123,217,1);
}
.zr2-cls-1:hover {
cursor:pointer;
fill:rgba(149,183,250,1);
}
.zr2-cls-2:hover {
cursor:pointer;
fill:rgba(159,224,128,1);
}
.zr2-cls-3:hover {
cursor:pointer;
fill:rgba(207,253,190,1);
}
.zr2-cls-4:hover {
cursor:pointer;
fill:rgba(0,115,101,1);
}
.zr2-cls-5:hover {
cursor:pointer;
fill:rgba(0,0,0,0);
}
.zr2-cls-6:hover {
pointer-events:none;
}

]]>

</style>
</svg>