<svg width="100%" height="100%" xmlns="http://www.w3.org/2000/svg" xmlns:xlink="http://www.w3.org/1999/xlink" version="1.1" baseProfile="full" viewBox="0 0 648 508">
<rect x="0" y="0" width="100%" height="100%" fill="#f0f2f5" />

<rect width="648" height="508" x="0" y="0" fill="#121212"></rect>
<polyline points="500 228.9 525.8 225.2 546.8 225.2" fill="none" stroke="#5470c6" class="zr0-cls-0"></polyline>
<polyline points="293.8 429.2 289.3 454.8 268.3 454.8" fill="none" stroke="#88a7e4" class="zr0-cls-0"></polyline>
<polyline points="173.7 349 151.7 362.9 130.7 362.9" fill="none" stroke="#91cc75" class="zr0-cls-0"></polyline>
<polyline points="147.5 232.4 121.7 229.2 100.7 229.2" fill="none" stroke="#bde6ad" class="zr0-cls-0"></polyline>
<polyline points="227.7 104.5 213.6 82.7 192.6 82.7" fill="none" stroke="#ef6c00" class="zr0-cls-0"></polyline>
<path d="M324 91.8925A15 15 0 0 1 340.3821 76.9563A177.8 177.8 0 0 1 389.2737 419.385A15 15 0 0 1 369.3663 409.6301L356.3597 365.0109A15 15 0 0 1 364.7449 347.0721A101.6 101.6 0 0 0 337.0703 153.2442A15 15 0 0 1 324 138.3689Z" fill="#5470c6" stroke="#fff" stroke-width="2" stroke-linejoin="round" class="zr0-cls-1"></path>
<path d="M324 91.8925A15 15 0 0 1 340.3821 76.9563A177.8 177.8 0 0 1 389.2737 419.385A15 15 0 0 1 369.3663 409.6301L356.3597 365.0109A15 15 0 0 1 364.7449 347.0721A101.6 101.6 0 0 0 337.0703 153.2442A15 15 0 0 1 324 138.3689Z" fill="url(#zr0-p0)" stroke="#fff" stroke-width="2" stroke-linejoin="round" class="zr0-cls-2"></path>
<path d="M369.3663 409.6301A15 15 0 0 1 357.8187 428.5541A177.8 177.8 0 0 1 233.6448 407.13A15 15 0 0 1 229.1062 385.4306L256.3123 347.7493A15 15 0 0 1 275.6169 343.34A101.6 101.6 0 0 0 339.6487 354.3876A15 15 0 0 1 356.3597 365.0109Z" fill="#88a7e4" stroke="#fff" stroke-width="2" stroke-linejoin="round" class="zr0-cls-3"></path>
<path d="M369.3663 409.6301A15 15 0 0 1 357.8187 428.5541A177.8 177.8 0 0 1 233.6448 407.13A15 15 0 0 1 229.1062 385.4306L256.3123 347.7493A15 15 0 0 1 275.6169 343.34A101.6 101.6 0 0 0 339.6487 354.3876A15 15 0 0 1 356.3597 365.0109Z" fill="url(#zr0-p1)" stroke="#fff" stroke-width="2" stroke-linejoin="round" class="zr0-cls-2"></path>
<path d="M229.1062 385.4306A15 15 0 0 1 207.0809 387.9506A177.8 177.8 0 0 1 152.8434 302.1484A15 15 0 0 1 164.5686 283.334L210.2777 274.9239A15 15 0 0 1 227.2727 285.0867A101.6 101.6 0 0 0 254.4231 328.0379A15 15 0 0 1 256.3123 347.7493Z" fill="#91cc75" stroke="#fff" stroke-width="2" stroke-linejoin="round" class="zr0-cls-4"></path>
<path d="M229.1062 385.4306A15 15 0 0 1 207.0809 387.9506A177.8 177.8 0 0 1 152.8434 302.1484A15 15 0 0 1 164.5686 283.334L210.2777 274.9239A15 15 0 0 1 227.2727 285.0867A101.6 101.6 0 0 0 254.4231 328.0379A15 15 0 0 1 256.3123 347.7493Z" fill="url(#zr0-p2)" stroke="#fff" stroke-width="2" stroke-linejoin="round" class="zr0-cls-2"></path>
<path d="M164.5686 283.334A15 15 0 0 1 146.9146 269.9251A177.8 177.8 0 0 1 156.0015 195.7819A15 15 0 0 1 176.3711 187.0332L218.6964 206.2326A15 15 0 0 1 226.8438 224.2806A101.6 101.6 0 0 0 222.5424 259.3776A15 15 0 0 1 210.2777 274.9239Z" fill="#bde6ad" stroke="#fff" stroke-width="2" stroke-linejoin="round" class="zr0-cls-5"></path>
<path d="M164.5686 283.334A15 15 0 0 1 146.9146 269.9251A177.8 177.8 0 0 1 156.0015 195.7819A15 15 0 0 1 176.3711 187.0332L218.6964 206.2326A15 15 0 0 1 226.8438 224.2806A101.6 101.6 0 0 0 222.5424 259.3776A15 15 0 0 1 210.2777 274.9239Z" fill="url(#zr0-p3)" stroke="#fff" stroke-width="2" stroke-linejoin="round" class="zr0-cls-2"></path>
<path d="M176.3711 187.0332A15 15 0 0 1 169.5364 165.9441A177.8 177.8 0 0 1 307.6179 76.9563A15 15 0 0 1 324 91.8925L324 138.3689A15 15 0 0 1 310.9297 153.2442A101.6 101.6 0 0 0 237.6426 200.4747A15 15 0 0 1 218.6964 206.2326Z" fill="#ef6c00" stroke="#fff" stroke-width="2" stroke-linejoin="round" class="zr0-cls-6"></path>
<path d="M176.3711 187.0332A15 15 0 0 1 169.5364 165.9441A177.8 177.8 0 0 1 307.6179 76.9563A15 15 0 0 1 324 91.8925L324 138.3689A15 15 0 0 1 310.9297 153.2442A101.6 101.6 0 0 0 237.6426 200.4747A15 15 0 0 1 218.6964 206.2326Z" fill="url(#zr0-p4)" stroke="#fff" stroke-width="2" stroke-linejoin="round" class="zr0-cls-2"></path>
<path d="M3 -13L83.2461 -13A3 3 0 0 1 86.2461 -10L86.2461 10A3 3 0 0 1 83.2461 13L3 13A3 3 0 0 1 0 10L0 -10A3 3 0 0 1 3 -13" transform="translate(551.7539 225.1938)" fill="none" class="zr0-cls-7"></path>
<text dominant-baseline="central" text-anchor="start" style="font-size:10px;font-family:Microsoft YaHei;font-weight:bold;" xml:space="preserve" x="8" transform="translate(551.7539 225.1938)" fill="#f4f4f4" filter="url(#zr0-s0)">FOI: 12642....</text>
<path d="M-97.8633 -13L-3 -13A3 3 0 0 1 0 -10L0 10A3 3 0 0 1 -3 13L-97.8633 13A3 3 0 0 1 -100.8633 10L-100.8633 -10A3 3 0 0 1 -97.8633 -13" transform="translate(263.3496 454.8327)" fill="none" class="zr0-cls-7"></path>
<text dominant-baseline="central" text-anchor="end" style="font-size:10px;font-family:Microsoft YaHei;font-weight:bold;" xml:space="preserve" x="-8" transform="translate(263.3496 454.8327)" fill="#f4f4f4" filter="url(#zr0-s0)">MGR: 4021.1 hec</text>
<path d="M-93.4297 -13L-3 -13A3 3 0 0 1 0 -10L0 10A3 3 0 0 1 -3 13L-93.4297 13A3 3 0 0 1 -96.4297 10L-96.4297 -10A3 3 0 0 1 -93.4297 -13" transform="translate(125.7316 362.8947)" fill="none" class="zr0-cls-7"></path>
<text dominant-baseline="central" text-anchor="end" style="font-size:10px;font-family:Microsoft YaHei;font-weight:bold;" xml:space="preserve" x="-8" transform="translate(125.7316 362.8947)" fill="#f4f4f4" filter="url(#zr0-s0)">SOY: 3377.5 hec</text>
<path d="M-82.7136 -13L-3 -13A3 3 0 0 1 0 -10L0 10A3 3 0 0 1 -3 13L-82.7136 13A3 3 0 0 1 -85.7136 10L-85.7136 -10A3 3 0 0 1 -82.7136 -13" transform="translate(95.7136 229.2081)" fill="none" class="zr0-cls-7"></path>
<text dominant-baseline="central" text-anchor="end" style="font-size:10px;font-family:Microsoft YaHei;font-weight:bold;" xml:space="preserve" x="-8" transform="translate(95.7136 229.2081)" fill="#f4f4f4" filter="url(#zr0-s0)">MAF: 2688....</text>
<path d="M-174.5996 -13L-3 -13A3 3 0 0 1 0 -10L0 10A3 3 0 0 1 -3 13L-174.5996 13A3 3 0 0 1 -177.5996 10L-177.5996 -10A3 3 0 0 1 -174.5996 -13" transform="translate(187.5996 82.6927)" fill="none" class="zr0-cls-7"></path>
<text dominant-baseline="central" text-anchor="end" style="font-size:10px;font-family:Microsoft YaHei;font-weight:bold;" xml:space="preserve" x="-8" transform="translate(187.5996 82.6927)" fill="#f4f4f4" filter="url(#zr0-s0)">Autres: 5064.9000000000015 ...</text>
<path d="M-91.5 -9.5L91.5 -9.5A8 8 0 0 1 99.5 -1.5L99.5 15.5A8 8 0 0 1 91.5 23.5L-91.5 23.5A8 8 0 0 1 -99.5 15.5L-99.5 -1.5A8 8 0 0 1 -91.5 -9.5" transform="translate(346.96 25.24)" fill="#e57373" stroke="#000" class="zr0-cls-2"></path>
<text dominant-baseline="central" text-anchor="middle" style="font-size:14px;font-family:Microsoft YaHei;font-weight:bold;" xml:space="preserve" y="7" transform="translate(346.96 25.24)" fill="#f6eded">Production Agricole 2022</text>
<defs >
<pattern width="6" height="4" patternUnits="userSpaceOnUse" id="zr0-p0">
<g >
<path d="M0 -4l4 0l0 2l-4 0Z" fill="rgb(0,0,0)" fill-opacity="0.22"></path>
<path d="M6 -4l4 0l0 2l-4 0Z" fill="rgb(0,0,0)" fill-opacity="0.22"></path>
<path d="M0 0l4 0l0 2l-4 0Z" fill="rgb(0,0,0)" fill-opacity="0.22"></path>
<path d="M6 0l4 0l0 2l-4 0Z" fill="rgb(0,0,0)" fill-opacity="0.22"></path>
</g>
</pattern>
<pattern width="3" height="6" patternUnits="userSpaceOnUse" patternTransform="rotate(45)" id="zr0-p1">
<g >
<path d="M0 -6l1 0l0 4l-1 0Z" fill="rgb(0,0,0)" fill-opacity="0.22"></path>
<path d="M3 -6l1 0l0 4l-1 0Z" fill="rgb(0,0,0)" fill-opacity="0.22"></path>
<path d="M0 0l1 0l0 4l-1 0Z" fill="rgb(0,0,0)" fill-opacity="0.22"></path>
<path d="M3 0l1 0l0 4l-1 0Z" fill="rgb(0,0,0)" fill-opacity="0.22"></path>
</g>
</pattern>
<pattern width="1" height="5" patternUnits="userSpaceOnUse" id="zr0-p2">
<g >
<path d="M0 -4L1 -4" fill="#000" stroke="rgb(0,0,0)" stroke-opacity="0.22"></path>
<path d="M1 -4L2 -4" fill="#000" stroke="rgb(0,0,0)" stroke-opacity="0.22"></path>
<path d="M0 1L1 1" fill="#000" stroke="rgb(0,0,0)" stroke-opacity="0.22"></path>
<path d="M1 1L2 1" fill="#000" stroke="rgb(0,0,0)" stroke-opacity="0.22"></path>
</g>
</pattern>
<pattern width="4" height="4" patternUnits="userSpaceOnUse" patternTransform="rotate(29.999999999999996)" id="zr0-p3">
<g >
<path d="M0 -4l0 0l0 2l0 0Z" fill="rgb(0,0,0)" fill-opacity="0.22"></path>
<path d="M4 -4l0 0l0 2l0 0Z" fill="rgb(0,0,0)" fill-opacity="0.22"></path>
<path d="M0 0l0 0l0 2l0 0Z" fill="rgb(0,0,0)" fill-opacity="0.22"></path>
<path d="M4 0l0 0l0 2l0 0Z" fill="rgb(0,0,0)" fill-opacity="0.22"></path>
</g>
</pattern>
<pattern width="3" height="4" patternUnits="userSpaceOnUse" id="zr0-p4">
<g >
<path d="M0.5 -4L1 -2L0 -2Z" fill="rgb(0,0,0)" fill-opacity="0.22"></path>
<path d="M3.5 -4L4 -2L3 -2Z" fill="rgb(0,0,0)" fill-opacity="0.22"></path>
<path d="M0.5 0L1 2L0 2Z" fill="rgb(0,0,0)" fill-opacity="0.22"></path>
<path d="M3.5 0L4 2L3 2Z" fill="rgb(0,0,0)" fill-opacity="0.22"></path>
</g>
</pattern>
<filter id="zr0-s0" x="-100%" y="-100%" width="300%" height="300%">
<feDropShadow dx="0" dy="0" stdDeviation="4.5 4.5" flood-color="rgb(0,0,0)" flood-opacity="0"></feDropShadow>
</filter>
</defs>
<style ><![CDATA[
.zr0-cls-0:hover {
cursor:pointer;
}
.zr0-cls-1:hover {
cursor:pointer;
fill:rgba(92,123,217,1);
}
.zr0-cls-2:hover {
pointer-events:none;
}
.zr0-cls-3:hover {
cursor:pointer;
fill:rgba(149,183,250,1);
}
.zr0-cls-4:hover {
cursor:pointer;
fill:rgba(159,224,128,1);
}
.zr0-cls-5:hover {
cursor:pointer;
fill:rgba(207,253,190,1);
}
.zr0-cls-6:hover {
cursor:pointer;
fill:rgba(255,118,0,1);
}
.zr0-cls-7:hover {
cursor:pointer;
fill:rgba(0,0,0,0);
}

]]>

</style>
</svg>