<svg width="100%" height="100%" xmlns="http://www.w3.org/2000/svg" xmlns:xlink="http://www.w3.org/1999/xlink" version="1.1" baseProfile="full" viewBox="0 0 774 526">
<rect x="0" y="0" width="100%" height="100%" fill="#f0f2f5" />

<rect width="774" height="526" x="0" y="0" fill="none"></rect>
<path d="M387 94.5666A15 15 0 0 1 403.3306 79.6257A184.1 184.1 0 0 1 453.9959 434.477A15 15 0 0 1 434.1366 424.7033L387 263Z" fill="#5470c6" stroke="#fff" stroke-width="2" stroke-linejoin="round" class="zr4-cls-0"></path>
<path d="M387 94.5666A15 15 0 0 1 403.3306 79.6257A184.1 184.1 0 0 1 453.9959 434.477A15 15 0 0 1 434.1366 424.7033L387 263Z" fill="url(#zr4-p0)" stroke="#fff" stroke-width="2" stroke-linejoin="round" class="zr4-cls-1"></path>
<path d="M434.1366 424.7033A15 15 0 0 1 422.6398 443.6173A184.1 184.1 0 0 1 292.8973 421.2324A15 15 0 0 1 288.4031 399.5594L387 263Z" fill="#88a7e4" stroke="#fff" stroke-width="2" stroke-linejoin="round" class="zr4-cls-2"></path>
<path d="M434.1366 424.7033A15 15 0 0 1 422.6398 443.6173A184.1 184.1 0 0 1 292.8973 421.2324A15 15 0 0 1 288.4031 399.5594L387 263Z" fill="url(#zr4-p1)" stroke="#fff" stroke-width="2" stroke-linejoin="round" class="zr4-cls-1"></path>
<path d="M288.4031 399.5594A15 15 0 0 1 266.4169 402.1134A184.1 184.1 0 0 1 209.608 312.2433A15 15 0 0 1 221.3472 293.4787L387 263Z" fill="#91cc75" stroke="#fff" stroke-width="2" stroke-linejoin="round" class="zr4-cls-3"></path>
<path d="M288.4031 399.5594A15 15 0 0 1 266.4169 402.1134A184.1 184.1 0 0 1 209.608 312.2433A15 15 0 0 1 221.3472 293.4787L387 263Z" fill="url(#zr4-p2)" stroke="#fff" stroke-width="2" stroke-linejoin="round" class="zr4-cls-1"></path>
<path d="M221.3472 293.4787A15 15 0 0 1 203.6979 280.1213A184.1 184.1 0 0 1 213.2576 202.1199A15 15 0 0 1 233.6102 193.4199L387 263Z" fill="#bde6ad" stroke="#fff" stroke-width="2" stroke-linejoin="round" class="zr4-cls-4"></path>
<path d="M221.3472 293.4787A15 15 0 0 1 203.6979 280.1213A184.1 184.1 0 0 1 213.2576 202.1199A15 15 0 0 1 233.6102 193.4199L387 263Z" fill="url(#zr4-p3)" stroke="#fff" stroke-width="2" stroke-linejoin="round" class="zr4-cls-1"></path>
<path d="M233.6102 193.4199A15 15 0 0 1 226.75 172.3758A184.1 184.1 0 0 1 370.6694 79.6257A15 15 0 0 1 387 94.5666L387 263Z" fill="#ef6c00" stroke="#fff" stroke-width="2" stroke-linejoin="round" class="zr4-cls-5"></path>
<path d="M233.6102 193.4199A15 15 0 0 1 226.75 172.3758A184.1 184.1 0 0 1 370.6694 79.6257A15 15 0 0 1 387 94.5666L387 263Z" fill="url(#zr4-p4)" stroke="#fff" stroke-width="2" stroke-linejoin="round" class="zr4-cls-1"></path>
<path d="M-5 -5l154.709 0l0 130l-154.709 0Z" transform="translate(12.74 331.12)" fill="rgb(0,0,0)" fill-opacity="0" stroke="#b7b9be" stroke-width="0" class="zr4-cls-1"></path>
<path d="M3.5 0L13.5 0A3.5 3.5 0 0 1 17 3.5L17 10.5A3.5 3.5 0 0 1 13.5 14L3.5 14A3.5 3.5 0 0 1 0 10.5L0 3.5A3.5 3.5 0 0 1 3.5 0" transform="translate(13.74 332.12)" fill="#5470c6" stroke="#fff" stroke-width="2" stroke-linecap="butt" stroke-miterlimit="10" stroke-linejoin="round" class="zr4-cls-1"></path>
<path d="M3.5 0L13.5 0A3.5 3.5 0 0 1 17 3.5L17 10.5A3.5 3.5 0 0 1 13.5 14L3.5 14A3.5 3.5 0 0 1 0 10.5L0 3.5A3.5 3.5 0 0 1 3.5 0" transform="translate(13.74 332.12)" fill="url(#zr4-p0)" stroke="#fff" stroke-width="2" stroke-linecap="butt" stroke-miterlimit="10" stroke-linejoin="round" class="zr4-cls-1"></path>
<text dominant-baseline="central" text-anchor="start" style="font-size:10px;font-family:Microsoft YaHei;font-weight:bold;" xml:space="preserve" x="22" y="7" transform="translate(13.74 332.12)" fill="#333">FOI: 12 642,8 (45.49%)</text>
<path d="M-1 -1l134.9092 0l0 16l-134.9092 0Z" transform="translate(13.74 332.12)" fill="none" class="zr4-cls-6"></path>
<path d="M3.5 0L13.5 0A3.5 3.5 0 0 1 17 3.5L17 10.5A3.5 3.5 0 0 1 13.5 14L3.5 14A3.5 3.5 0 0 1 0 10.5L0 3.5A3.5 3.5 0 0 1 3.5 0" transform="translate(13.74 358.12)" fill="#88a7e4" stroke="#fff" stroke-width="2" stroke-linecap="butt" stroke-miterlimit="10" stroke-linejoin="round" class="zr4-cls-1"></path>
<path d="M3.5 0L13.5 0A3.5 3.5 0 0 1 17 3.5L17 10.5A3.5 3.5 0 0 1 13.5 14L3.5 14A3.5 3.5 0 0 1 0 10.5L0 3.5A3.5 3.5 0 0 1 3.5 0" transform="translate(13.74 358.12)" fill="url(#zr4-p1)" stroke="#fff" stroke-width="2" stroke-linecap="butt" stroke-miterlimit="10" stroke-linejoin="round" class="zr4-cls-1"></path>
<text dominant-baseline="central" text-anchor="start" style="font-size:10px;font-family:Microsoft YaHei;font-weight:bold;" xml:space="preserve" x="22" y="7" transform="translate(13.74 358.12)" fill="#333">MGR: 4 021,1 (14.47%)</text>
<path d="M-1 -1l136.54 0l0 16l-136.54 0Z" transform="translate(13.74 358.12)" fill="none" class="zr4-cls-6"></path>
<path d="M3.5 0L13.5 0A3.5 3.5 0 0 1 17 3.5L17 10.5A3.5 3.5 0 0 1 13.5 14L3.5 14A3.5 3.5 0 0 1 0 10.5L0 3.5A3.5 3.5 0 0 1 3.5 0" transform="translate(13.74 384.12)" fill="#91cc75" stroke="#fff" stroke-width="2" stroke-linecap="butt" stroke-miterlimit="10" stroke-linejoin="round" class="zr4-cls-1"></path>
<path d="M3.5 0L13.5 0A3.5 3.5 0 0 1 17 3.5L17 10.5A3.5 3.5 0 0 1 13.5 14L3.5 14A3.5 3.5 0 0 1 0 10.5L0 3.5A3.5 3.5 0 0 1 3.5 0" transform="translate(13.74 384.12)" fill="url(#zr4-p2)" stroke="#fff" stroke-width="2" stroke-linecap="butt" stroke-miterlimit="10" stroke-linejoin="round" class="zr4-cls-1"></path>
<text dominant-baseline="central" text-anchor="start" style="font-size:10px;font-family:Microsoft YaHei;font-weight:bold;" xml:space="preserve" x="22" y="7" transform="translate(13.74 384.12)" fill="#333">SOY: 3 377,5 (12.15%)</text>
<path d="M-1 -1l132.1064 0l0 16l-132.1064 0Z" transform="translate(13.74 384.12)" fill="none" class="zr4-cls-6"></path>
<path d="M3.5 0L13.5 0A3.5 3.5 0 0 1 17 3.5L17 10.5A3.5 3.5 0 0 1 13.5 14L3.5 14A3.5 3.5 0 0 1 0 10.5L0 3.5A3.5 3.5 0 0 1 3.5 0" transform="translate(13.74 410.12)" fill="#bde6ad" stroke="#fff" stroke-width="2" stroke-linecap="butt" stroke-miterlimit="10" stroke-linejoin="round" class="zr4-cls-1"></path>
<path d="M3.5 0L13.5 0A3.5 3.5 0 0 1 17 3.5L17 10.5A3.5 3.5 0 0 1 13.5 14L3.5 14A3.5 3.5 0 0 1 0 10.5L0 3.5A3.5 3.5 0 0 1 3.5 0" transform="translate(13.74 410.12)" fill="url(#zr4-p3)" stroke="#fff" stroke-width="2" stroke-linecap="butt" stroke-miterlimit="10" stroke-linejoin="round" class="zr4-cls-1"></path>
<text dominant-baseline="central" text-anchor="start" style="font-size:10px;font-family:Microsoft YaHei;font-weight:bold;" xml:space="preserve" x="22" y="7" transform="translate(13.74 410.12)" fill="#333">MAF: 2 688,8 (9.67%)</text>
<path d="M-1 -1l128.8398 0l0 16l-128.8398 0Z" transform="translate(13.74 410.12)" fill="none" class="zr4-cls-6"></path>
<path d="M3.5 0L13.5 0A3.5 3.5 0 0 1 17 3.5L17 10.5A3.5 3.5 0 0 1 13.5 14L3.5 14A3.5 3.5 0 0 1 0 10.5L0 3.5A3.5 3.5 0 0 1 3.5 0" transform="translate(13.74 436.12)" fill="#ef6c00" stroke="#fff" stroke-width="2" stroke-linecap="butt" stroke-miterlimit="10" stroke-linejoin="round" class="zr4-cls-1"></path>
<path d="M3.5 0L13.5 0A3.5 3.5 0 0 1 17 3.5L17 10.5A3.5 3.5 0 0 1 13.5 14L3.5 14A3.5 3.5 0 0 1 0 10.5L0 3.5A3.5 3.5 0 0 1 3.5 0" transform="translate(13.74 436.12)" fill="url(#zr4-p4)" stroke="#fff" stroke-width="2" stroke-linecap="butt" stroke-miterlimit="10" stroke-linejoin="round" class="zr4-cls-1"></path>
<text dominant-baseline="central" text-anchor="start" style="font-size:10px;font-family:Microsoft YaHei;font-weight:bold;" xml:space="preserve" x="22" y="7" transform="translate(13.74 436.12)" fill="#333">Autres: 5 064,9 (18.22%)</text>
<path d="M-1 -1l144.709 0l0 16l-144.709 0Z" transform="translate(13.74 436.12)" fill="none" class="zr4-cls-6"></path>
<path d="M-104 -13L104 -13A11 11 0 0 1 115 -2L115 18A11 11 0 0 1 104 29L-104 29A11 11 0 0 1 -115 18L-115 -2A11 11 0 0 1 -104 -13" transform="translate(415.48 18.26)" fill="#ffcdd2" stroke="#000" stroke-width="2" class="zr4-cls-1"></path>
<text dominant-baseline="central" text-anchor="middle" style="font-size:16px;font-family:Microsoft YaHei;font-weight:bold;" xml:space="preserve" y="8" transform="translate(415.48 18.26)" fill="#1d1c1c">Production Agricole 2023</text>
<defs >
<pattern width="6" height="4" patternUnits="userSpaceOnUse" id="zr4-p0">
<g >
<path d="M0 -4l4 0l0 2l-4 0Z" fill="rgb(0,0,0)" fill-opacity="0.22"></path>
<path d="M6 -4l4 0l0 2l-4 0Z" fill="rgb(0,0,0)" fill-opacity="0.22"></path>
<path d="M0 0l4 0l0 2l-4 0Z" fill="rgb(0,0,0)" fill-opacity="0.22"></path>
<path d="M6 0l4 0l0 2l-4 0Z" fill="rgb(0,0,0)" fill-opacity="0.22"></path>
</g>
</pattern>
<pattern width="3" height="6" patternUnits="userSpaceOnUse" patternTransform="rotate(45)" id="zr4-p1">
<g >
<path d="M0 -6l1 0l0 4l-1 0Z" fill="rgb(0,0,0)" fill-opacity="0.22"></path>
<path d="M3 -6l1 0l0 4l-1 0Z" fill="rgb(0,0,0)" fill-opacity="0.22"></path>
<path d="M0 0l1 0l0 4l-1 0Z" fill="rgb(0,0,0)" fill-opacity="0.22"></path>
<path d="M3 0l1 0l0 4l-1 0Z" fill="rgb(0,0,0)" fill-opacity="0.22"></path>
</g>
</pattern>
<pattern width="1" height="5" patternUnits="userSpaceOnUse" id="zr4-p2">
<g >
<path d="M0 -4L1 -4" fill="#000" stroke="rgb(0,0,0)" stroke-opacity="0.22"></path>
<path d="M1 -4L2 -4" fill="#000" stroke="rgb(0,0,0)" stroke-opacity="0.22"></path>
<path d="M0 1L1 1" fill="#000" stroke="rgb(0,0,0)" stroke-opacity="0.22"></path>
<path d="M1 1L2 1" fill="#000" stroke="rgb(0,0,0)" stroke-opacity="0.22"></path>
</g>
</pattern>
<pattern width="4" height="4" patternUnits="userSpaceOnUse" patternTransform="rotate(29.999999999999996)" id="zr4-p3">
<g >
<path d="M0 -4l0 0l0 2l0 0Z" fill="rgb(0,0,0)" fill-opacity="0.22"></path>
<path d="M4 -4l0 0l0 2l0 0Z" fill="rgb(0,0,0)" fill-opacity="0.22"></path>
<path d="M0 0l0 0l0 2l0 0Z" fill="rgb(0,0,0)" fill-opacity="0.22"></path>
<path d="M4 0l0 0l0 2l0 0Z" fill="rgb(0,0,0)" fill-opacity="0.22"></path>
</g>
</pattern>
<pattern width="3" height="4" patternUnits="userSpaceOnUse" id="zr4-p4">
<g >
<path d="M0.5 -4L1 -2L0 -2Z" fill="rgb(0,0,0)" fill-opacity="0.22"></path>
<path d="M3.5 -4L4 -2L3 -2Z" fill="rgb(0,0,0)" fill-opacity="0.22"></path>
<path d="M0.5 0L1 2L0 2Z" fill="rgb(0,0,0)" fill-opacity="0.22"></path>
<path d="M3.5 0L4 2L3 2Z" fill="rgb(0,0,0)" fill-opacity="0.22"></path>
</g>
</pattern>
</defs>
<style ><![CDATA[
.zr4-cls-0:hover {
cursor:pointer;
fill:rgba(92,123,217,1);
}
.zr4-cls-1:hover {
pointer-events:none;
}
.zr4-cls-2:hover {
cursor:pointer;
fill:rgba(149,183,250,1);
}
.zr4-cls-3:hover {
cursor:pointer;
fill:rgba(159,224,128,1);
}
.zr4-cls-4:hover {
cursor:pointer;
fill:rgba(207,253,190,1);
}
.zr4-cls-5:hover {
cursor:pointer;
fill:rgba(255,118,0,1);
}
.zr4-cls-6:hover {
cursor:pointer;
fill:rgba(0,0,0,0);
}

]]>

</style>
</svg>